<mxfile host="app.diagrams.net" modified="2023-08-17T15:52:51.266Z" agent="Mozilla/5.0 (Macintosh; Intel Mac OS X 10_15_7) AppleWebKit/537.36 (KHTML, like Gecko) Chrome/114.0.0.0 Safari/537.36" version="21.6.8" etag="CpR6gBLt-UUFhnNI-hOY" type="github">
  <diagram name="Page-1" id="fU11pbnmL1w5C1Ft-tHc">
    <mxGraphModel>
      <root>
        <mxCell id="0" />
        <mxCell id="1" parent="0" />
      </root>
    </mxGraphModel>
  </diagram>
</mxfile>
